<svg xmlns="http://www.w3.org/2000/svg" width="960" height="640" viewBox="0 0 960 640" fill="none"><rect width="960" height="640" rx="28" fill="#0F1720"/><rect x="96" y="92" width="768" height="456" rx="24" fill="#1B2736"/><path d="M480 152l138 48v98c0 84-58 152-138 182-80-30-138-98-138-182v-98l138-48z" fill="#2A9D66" fill-opacity=".2"/><path d="M480 194l96 34v67c0 58-39 105-96 129-57-24-96-71-96-129v-67l96-34z" stroke="#3ECF8E" stroke-width="10"/><path d="M438 296l33 32 52-58" stroke="#E8C547" stroke-width="14" stroke-linecap="round" stroke-linejoin="round"/><rect x="164" y="404" width="632" height="34" rx="10" fill="#233144"/><rect x="164" y="454" width="442" height="34" rx="10" fill="#233144"/></svg>